<svg id="Layer_1" data-name="Layer 1" xmlns="http://www.w3.org/2000/svg" xmlns:xlink="http://www.w3.org/1999/xlink" viewBox="0 0 2800 2800"><defs><style>.cls-1{opacity:0.63;}.cls-2{fill:url(#linear-gradient);}.cls-3{opacity:0.2;}.cls-4{opacity:0.1;}</style><linearGradient id="linear-gradient" y1="2800" x2="2800" gradientUnits="userSpaceOnUse"><stop offset="0" stop-color="#575757"/><stop offset="1" stop-color="#3b3b3b"/></linearGradient></defs><title>Монтажная область 8</title><g class="cls-1"><rect class="cls-2" width="2800" height="2800"/><path class="cls-3" d="M1851.32,585.82c-238.76,21.72-452.5-134.71-645-277.67S786.15,20.7,551.52,69.94C335,115.39,184.38,315.5,100.74,520.33,58.39,624.05,28,731.78,0,840.36V2800H2800V0H2418.58C2339.34,279.76,2139.54,559.59,1851.32,585.82Z"/><path class="cls-3" d="M2800,939.53c-113.66-88.21-261.62-132.58-403.51-110-139.42,22.19-262,102.39-395.51,148.39-286.12,98.61-624.45,24.9-843.61-183.81C1036.14,678.67,923.71,514.19,756.35,518c-151.17,3.44-256.8,145.5-338,273L114.24,1268.5C76,1328.49,38.2,1387.37,0,1445.28V2525.15c113.9-8.59,228.58-21.56,330.46,24.15,114,51.13,184.6,163.88,275.06,250.7h676.33c84.48-56.05,161.53-124.67,236.05-193.92,114.89-106.76,228.38-218.11,365.37-294.47,236.87-132,525.22-149,759.64-285.33A801.66,801.66,0,0,0,2800,1906.75Z"/><path class="cls-3" d="M574.37,1323.72c-91,102.85-205.65,183.38-291.85,290.27C196.77,1720.33,141,1857.72,159.59,1993.06s124.7,262.1,260.43,277.58c116.8,13.33,226.24-51.85,339.45-83.56,181.58-50.86,374.4-15.06,562.93-11.1A1656.33,1656.33,0,0,0,2030,2032.87c138.14-61.72,284.23-170.34,282-321.62-2.3-155.26-167.2-263.51-321.91-276.74s-307,37.86-461.37,54.46-332.65-13.42-419.31-142.25c-47.67-70.85-59-159-75.17-242.88-19.66-101.6-177.11-401.61-303.91-223.3-32.81,46.14-17.06,132.1-26.12,185.2C687.52,1163.41,639.69,1249.88,574.37,1323.72Z"/><path class="cls-4" d="M1851.32,585.82c-238.76,21.72-452.5-134.71-645-277.67S786.15,20.7,551.52,69.94C335,115.39,184.38,315.5,100.74,520.33,58.39,624.05,28,731.78,0,840.36v21.71C47.44,710.83,106.64,564,200.91,437.75,337.48,254.79,566.53,122.13,790.59,166c137.11,26.85,254,114.37,358.84,206.71s205.06,193.41,329.29,257.36c220.83,113.7,506.12,88.45,703.56-62.26C2354.4,436.44,2452.12,215.5,2440.27,0h-21.69C2339.34,279.76,2139.54,559.59,1851.32,585.82Z"/><g class="cls-4"><path d="M605.52,2800h23.56c-92.92-110.29-172.33-236.2-295.58-309.86-99-59.17-221.16-75.86-333.5-50.75v85.76c113.9-8.59,228.58-21.56,330.46,24.15C444.41,2600.43,515.06,2713.18,605.52,2800Z"/><path d="M2800,1906.75v-24.67c-127.19,88.48-277,146.17-426.08,192.88-200.55,62.86-408,110.8-593.59,209.35a1207.06,1207.06,0,0,0-447.07,411.29c-21.73,33.8-42.79,69.58-65,104.4h13.56c84.48-56.05,161.53-124.67,236.05-193.92,114.89-106.76,228.38-218.11,365.37-294.47,236.87-132,525.22-149,759.64-285.33A801.66,801.66,0,0,0,2800,1906.75Z"/></g><path class="cls-4" d="M2396.49,829.53c-139.42,22.19-262,102.39-395.51,148.39-286.12,98.61-624.45,24.9-843.61-183.81C1036.14,678.67,923.71,514.19,756.35,518c-151.17,3.44-256.8,145.5-338,273L114.24,1268.5C76,1328.49,38.2,1387.37,0,1445.28v84.81C118.4,1294.86,279.16,1081.68,438.5,871c48.06-63.54,96.78-127.79,158.94-177.62s140.18-84.53,219.67-79.19c138.58,9.3,238.36,130,337.07,227.69,106.08,105,230.54,193.49,370.38,245.71s295.73,66.73,439.71,27.34c103.43-28.29,197.34-82.78,293-131.25s197.2-92.09,304.36-95.68c86.51-2.9,177.82,25.28,238.38,84.88V939.53C2686.34,851.32,2538.38,807,2396.49,829.53Z"/><path class="cls-4" d="M1419.44,2146c-185.3-20.36-370.73-86.62-553.82-51.5-114.19,21.9-217.56,81.92-329.82,112.19-103.9,28-228.62,23.57-305.39-48.28C277.65,2218.62,344.21,2262,420,2270.64c116.8,13.33,226.24-51.85,339.45-83.56,181.58-50.86,374.4-15.06,562.93-11.1a1651.8,1651.8,0,0,0,360.76-32.35A1125,1125,0,0,1,1419.44,2146Z"/><path class="cls-4" d="M1990.06,1434.51c-154.71-13.23-307,37.86-461.37,54.46s-332.65-13.42-419.31-142.25c-47.67-70.85-59-159-75.17-242.88-19.66-101.6-177.11-401.61-303.91-223.3-32.81,46.14-17.06,132.1-26.12,185.2-16.66,97.67-64.49,184.14-129.81,258-91,102.85-205.65,183.38-291.85,290.27C196.77,1720.33,141,1857.72,159.59,1993.06q.54,3.9,1.19,7.8a389.61,389.61,0,0,1,2.47-83.65c14.42-107.49,65.09-209.8,141.84-286.43,84.19-84.07,195.83-135.61,283.66-215.87C690.21,1322.2,754.66,1191.13,770,1054.86c3.62-32.22,6.12-64.78-1.32-96.55-4.39-18.76-21.89-40.63-21-60.11,2.78-60.85,78.17-71.53,123.11-46.49,54.16,30.18,77.54,96.55,82,158.39s-5.31,124.39,3.28,185.79c19.71,140.93,136.22,254.21,269,305.26s279.82,49.57,421.44,35.77c87.92-8.57,175.94-21.63,264.16-17.29s178.45,27.74,246.48,84.08,109.2,150.1,86.56,235.48c-11.09,41.8-35.31,77.09-66.37,107.1,77.89-60.51,136-139.22,134.58-235C2309.67,1556,2144.77,1447.74,1990.06,1434.51Z"/><path class="cls-3" d="M1282.43,0c23.33,17,45.74,35.28,67.19,54.19,82,72.27,154.9,155.12,243,219.72s197.09,110.66,305.18,94.56C2019.19,350.4,2118.4,256,2173.92,146.59c23.69-46.67,40.69-96,53.71-146.59Z"/><path class="cls-4" d="M2173.92,146.59c23.69-46.67,40.69-96,53.71-146.59h-59.92c-20.42,52.84-43.76,104.36-74.82,151.59-49,74.46-119.88,138.35-206.22,160.44-120.37,30.79-249.58-25.69-338-113-58.14-57.43-102-126.56-140.63-199H1282.43c23.33,17,45.74,35.28,67.19,54.19,82,72.27,154.9,155.12,243,219.72s197.09,110.66,305.18,94.56C2019.19,350.4,2118.4,256,2173.92,146.59Z"/></g></svg>